<svg xmlns="http://www.w3.org/2000/svg" width="549" height="92" viewBox="0 0 549 92">
  <g id="Group_6344" data-name="Group 6344" transform="translate(23128 -15206)">
    <rect id="Rectangle_2997" data-name="Rectangle 2997" width="549" height="92" transform="translate(-23128 15206)" fill="none"/>
    <g id="Group_6334" data-name="Group 6334" transform="translate(-23871.836 14265.461)">
      <path id="Path_5731" data-name="Path 5731" d="M805.39,993.939l9.738,2.536q.231,3,.231,5.185,0,11.47-8.3,18.325t-22.244,6.857q-34.98,0-34.98-39.356,0-18.669,10.2-30.282T786.6,945.593q25.528,0,25.529,24.548l-9.8,4.494q.173-3.458.173-5.358,0-17.4-13.945-17.4-14.754,0-14.753,36.937,0,31.751,16.482,31.75a14.157,14.157,0,0,0,11.323-5.416,20.407,20.407,0,0,0,4.524-13.542A57.482,57.482,0,0,0,805.39,993.939Z" transform="translate(0 0.003)" fill="#069"/>
      <path id="Path_5732" data-name="Path 5732" d="M841.311,964.752q28.814,0,28.813,30.425T841.311,1025.6q-28.87,0-28.871-30.425T841.311,964.752Zm-.057,5.129q-6.972,0-6.972,25.3t6.972,25.3q7.031,0,7.031-25.3T841.254,969.881Z" transform="translate(3.863 1.185)" fill="#069"/>
      <path id="Path_5733" data-name="Path 5733" d="M927.052,1024.338H906.017V981.7q0-6.512-3.63-6.511-3.69,0-6.4,5.157a25.874,25.874,0,0,0-2.708,12.188v31.808H872.249v-58.2a150.206,150.206,0,0,0,21.033-1.441v10.891q7.835-10.834,19.132-10.833,14.637,0,14.638,14.867Z" transform="translate(7.553 1.182)" fill="#069"/>
      <path id="Path_5734" data-name="Path 5734" d="M985.749,968.876l-10.6,1.959a25.707,25.707,0,0,0,.692-5.3q0-13.714-16.654-13.714-13.14,0-13.14,9.45,0,7.087,14.7,12.159,28.352,9.738,28.353,28.811,0,11.18-7.953,17.95t-21.148,6.771q-29.218,0-29.218-22.646a44,44,0,0,1,.289-4.553l11.007-2.42a36.226,36.226,0,0,0-1.268,8.7q0,14.639,16.77,14.637,13.425,0,13.427-10.545,0-7.837-16.078-13.772-23.224-8.526-23.224-27.256a21.179,21.179,0,0,1,7.75-17.085q7.751-6.483,20.371-6.483Q985.749,945.539,985.749,968.876Z" transform="translate(11.164)" fill="#069"/>
      <path id="Path_5735" data-name="Path 5735" d="M1049.032,1022.27a41.436,41.436,0,0,1-15.04,3q-10.836,0-13.37-6.741-5.244,7.031-15.1,7.03-18.383,0-18.383-17.057,0-12.965,16.827-18.208,15.445-4.841,15.445-11.641,0-8.931-8.875-8.932-10.258,0-10.257,8.644a22.2,22.2,0,0,0,1.613,7.145l-10.43-2.017a34.556,34.556,0,0,1-.4-5.071q0-13.83,25.24-13.83,23.973,0,23.974,12.908v35.266q0,5.416,3.514,5.416a7.507,7.507,0,0,0,3.228-1.209Zm-29.794-32.846a17.8,17.8,0,0,1-4.553,3.746q-6.514,3.8-6.513,12.794,0,11.525,4.5,11.524,6.569,0,6.569-11.409Z" transform="translate(14.642 1.175)" fill="#069"/>
      <path id="Path_5736" data-name="Path 5736" d="M1068.278,945.7v79.808h-21.035V946.854Q1055.943,946.854,1068.278,945.7Z" transform="translate(18.35 0.01)" fill="#069"/>
      <path id="Path_5737" data-name="Path 5737" d="M1129.974,964.752v59.583H1108.94v-9.277q-7.262,10.371-18.671,10.372-15.387,0-15.386-14.982v-44.2q10.6-.46,21.033-1.5v45.177q0,5.877,3.574,5.878,9.449,0,9.45-20.284V966.25Q1119.486,965.79,1129.974,964.752Z" transform="translate(20.056 1.185)" fill="#069"/>
      <path id="Path_5738" data-name="Path 5738" d="M1186.152,945.647v79.867h-21.034V1020.5q-5.3,6.34-14.176,6.338-19.595,0-19.594-30.079,0-30.945,20.746-30.943,8.181,0,13.024,7.2V946.857A202.822,202.822,0,0,0,1186.152,945.647Zm-27.258,28.64q-5.3,0-5.3,9.738l-.4,12.332.232,11.236q0,10.777,5.992,10.776,5.821,0,5.821-10.6l.288-14.175-.461-9.681Q1164.136,974.287,1158.894,974.286Z" transform="translate(23.54 0.007)" fill="#069"/>
      <path id="Path_5739" data-name="Path 5739" d="M1194.167,1011.359q5.338,0,5.338,5.339t-5.338,5.337q-5.338,0-5.338-5.337T1194.167,1011.359Z" transform="translate(27.086 4.061)" fill="#069"/>
      <path id="Path_5740" data-name="Path 5740" d="M1225.791,1011.507l4.458,1.3q-.7,10.584-12.5,10.584-15.285,0-15.285-15.256,0-7.4,4.064-12.131a13.1,13.1,0,0,1,10.4-4.731q13.255,0,13.254,17.105h-16.136q0,12.011,6.1,12.01,5.7,0,5.7-6.793Q1225.851,1012.689,1225.791,1011.507Zm-11.768-6.551h6.611q0-10.675-3.215-10.675-2.911,0-3.275,7.916Z" transform="translate(27.928 2.822)" fill="#069"/>
      <g id="Group_6333" data-name="Group 6333" transform="translate(1259.432 994.191)">
        <path id="Path_5741" data-name="Path 5741" d="M1254.5,999.978l-5.369.939q0-6.853-6.369-6.853-3.913,0-3.913,3.215,0,2.365,6.733,5.1,10.313,4.216,10.312,10.705,0,10.344-13.132,10.343-13.892,0-13.891-10.343l5.7-1.152a15.7,15.7,0,0,0-.121,1.88,6.015,6.015,0,0,0,2.229,4.641,7.685,7.685,0,0,0,5.263,1.971q4,0,4-3.4,0-2.274-6.46-5.035-9.735-4.185-9.736-10.736a8.5,8.5,0,0,1,3.731-7.111,15.633,15.633,0,0,1,9.584-2.775Q1253.471,991.364,1254.5,999.978Z" transform="translate(-1228.875 -991.364)" fill="#069"/>
      </g>
    </g>
  </g>
</svg>
