<svg xmlns="http://www.w3.org/2000/svg" xmlns:xlink="http://www.w3.org/1999/xlink" viewBox="0 0 512 512" version="1.1">
    <defs><style>.path-icon{fill:#0782b6;}</style></defs>
    <path class="path-icon" d="M 475.429688 384 L 475.429688 420.570312 C 475.429688 425.523438 473.617188 429.808594 470 433.429688 C 466.382812 437.046875 462.09375 438.855469 457.144531 438.855469 L 54.855469 438.855469 C 49.90625 438.855469 45.617188 437.046875 42 433.429688 C 38.382812 429.808594 36.570312 425.523438 36.570312 420.570312 L 36.570312 384 C 36.570312 379.046875 38.382812 374.761719 42 371.144531 C 45.617188 367.523438 49.90625 365.714844 54.855469 365.714844 L 457.144531 365.714844 C 462.09375 365.714844 466.382812 367.523438 470 371.144531 C 473.617188 374.761719 475.429688 379.046875 475.429688 384 Z M 475.429688 237.714844 L 475.429688 274.285156 C 475.429688 279.238281 473.617188 283.523438 470 287.144531 C 466.382812 290.761719 462.09375 292.570312 457.144531 292.570312 L 54.855469 292.570312 C 49.90625 292.570312 45.617188 290.761719 42 287.144531 C 38.382812 283.523438 36.570312 279.238281 36.570312 274.285156 L 36.570312 237.714844 C 36.570312 232.761719 38.382812 228.476562 42 224.855469 C 45.617188 221.238281 49.90625 219.429688 54.855469 219.429688 L 457.144531 219.429688 C 462.09375 219.429688 466.382812 221.238281 470 224.855469 C 473.617188 228.476562 475.429688 232.761719 475.429688 237.714844 Z M 475.429688 91.429688 L 475.429688 128 C 475.429688 132.953125 473.617188 137.238281 470 140.855469 C 466.382812 144.476562 462.09375 146.285156 457.144531 146.285156 L 54.855469 146.285156 C 49.90625 146.285156 45.617188 144.476562 42 140.855469 C 38.382812 137.238281 36.570312 132.953125 36.570312 128 L 36.570312 91.429688 C 36.570312 86.476562 38.382812 82.191406 42 78.570312 C 45.617188 74.953125 49.90625 73.144531 54.855469 73.144531 L 457.144531 73.144531 C 462.09375 73.144531 466.382812 74.953125 470 78.570312 C 473.617188 82.191406 475.429688 86.476562 475.429688 91.429688 Z M 475.429688 91.429688 "/>
</svg>

